<?xml version="1.0" encoding="UTF-8"?>
<svg xmlns="http://www.w3.org/2000/svg" width="325" height="240" viewBox="0 0 325 240" fill="none">
  <rect width="325" height="240" fill="white"></rect>
  <path d="M129.076 110.309C129.076 94.0538 108.905 80.8689 84.0378 80.8689C59.1707 80.8689 39 94.114 39 110.309V112.055C39 129.274 56.6418 143.241 84.0378 143.241C111.614 143.241 129.076 129.274 129.076 112.055V110.309V110.309Z" fill="#28316B"></path>
  <path d="M127.386 110.308C127.386 125.6 107.998 138.002 84.094 138.002C60.1301 138.002 40.7422 125.6 40.7422 110.308C40.7422 95.0156 60.1301 82.6134 84.0338 82.6134C107.998 82.5532 127.386 95.0156 127.386 110.308Z" fill="#50B4E9"></path>
  <path d="M69.6859 101.538C69.6859 101.598 69.2042 102.019 69.5052 102.381C70.1676 103.284 72.2749 103.765 74.4425 103.284C75.707 102.983 77.3327 101.718 78.8981 100.454C80.584 99.0694 82.3302 97.7449 84.0161 97.203C85.8224 96.601 86.9664 96.902 87.7491 97.0826C88.5921 97.3234 89.5555 97.8653 91.1209 99.0694C94.0713 101.297 105.993 111.712 108.04 113.519C109.726 112.796 117.072 109.605 127.067 107.378C126.224 102.019 122.973 97.1428 118.035 93.1693C111.231 96.0591 102.802 97.5643 94.6132 93.5305C94.553 93.5305 90.1576 91.4234 85.7622 91.5438C79.2594 91.6642 76.4295 94.4938 73.4189 97.5041L69.6859 101.538Z" fill="white"></path>
  <path d="M107.576 114.627C107.456 114.506 93.6071 102.405 90.4159 99.997C88.6096 98.6123 87.586 98.3113 86.5022 98.1307C85.9603 98.0705 85.1776 98.1909 84.6357 98.3113C83.1906 98.7327 81.2639 99.997 79.5779 101.322C77.8318 102.706 76.1459 104.031 74.6407 104.392C72.6537 104.813 70.3055 104.332 69.1615 103.549C68.74 103.248 68.3787 102.887 68.2583 102.586C67.8368 101.623 68.6196 100.9 68.74 100.78L72.5935 96.6255L73.9181 95.301C72.7139 95.4816 71.5699 95.7827 70.4259 96.0837C69.041 96.5051 67.7164 96.8664 66.3315 96.8664C65.7897 96.8664 62.7791 96.3847 62.177 96.2041C58.745 95.301 55.7344 94.3378 51.1584 92.2306C45.7394 96.2643 42.0666 101.322 41.043 106.921C41.8257 107.101 43.0901 107.523 43.632 107.643C55.9753 110.412 59.7686 113.182 60.4911 113.784C61.2738 112.941 62.3576 112.399 63.5618 112.399C64.9467 112.399 66.1509 113.061 66.8734 114.145C67.596 113.603 68.5594 113.122 69.8238 113.122C70.3657 113.122 70.9678 113.242 71.5699 113.423C72.9548 113.904 73.6773 114.807 74.0385 115.65C74.5202 115.409 75.0621 115.289 75.7245 115.289C76.3868 115.289 77.1093 115.409 77.7716 115.71C80.0596 116.674 80.4209 118.901 80.1801 120.587H80.6617C83.3712 120.587 85.5388 122.754 85.5388 125.464C85.5388 126.307 85.298 127.089 84.9367 127.751C85.6593 128.173 87.5258 129.076 89.1515 128.895C90.4761 128.715 90.9578 128.293 91.1384 128.052C91.2589 127.872 91.3793 127.691 91.2589 127.511L87.7666 123.658C87.7666 123.658 87.1645 123.116 87.4054 122.935C87.586 122.694 87.9473 123.055 88.1881 123.236C89.9342 124.741 92.1018 126.969 92.1018 126.969C92.162 126.969 92.2824 127.27 93.0652 127.39C93.7275 127.511 94.9919 127.45 95.8349 126.728C96.0757 126.547 96.2564 126.307 96.437 126.126L96.3768 126.186C97.28 125.042 96.2564 123.898 96.2564 123.898L92.3427 119.323C92.3427 119.323 91.7406 118.781 91.9814 118.54C92.162 118.36 92.5233 118.661 92.7641 118.841C94.0286 119.925 95.8951 121.731 97.581 123.417C97.9423 123.658 99.4475 124.621 101.495 123.296C102.699 122.514 102.94 121.49 102.94 120.768C102.88 119.804 102.097 119.082 102.097 119.082L96.5574 113.543C96.5574 113.543 95.9553 113.061 96.1962 112.76C96.3768 112.52 96.7381 112.881 96.9789 113.061C98.725 114.567 103.542 118.901 103.542 118.901C103.602 118.962 105.288 120.105 107.275 118.841C107.997 118.36 108.479 117.697 108.539 116.854C108.6 115.47 107.576 114.627 107.576 114.627" fill="white"></path>
  <path d="M80.7292 121.715C79.8863 121.715 78.9229 122.197 78.8025 122.136C78.7423 122.076 78.8627 121.775 78.9229 121.534C78.9831 121.354 80.1271 117.922 77.3574 116.778C75.2501 115.875 73.9856 116.899 73.5039 117.38C73.3835 117.501 73.3233 117.501 73.3233 117.32C73.2631 116.718 73.0223 115.032 71.2159 114.49C68.6269 113.708 66.941 115.514 66.5195 116.176C66.3388 114.671 65.0744 113.527 63.5691 113.527C61.8832 113.527 60.5586 114.852 60.5586 116.537C60.5586 118.223 61.8832 119.548 63.5691 119.548C64.3519 119.548 65.1346 119.247 65.6765 118.705V118.825C65.5561 119.548 65.3153 122.317 68.1452 123.401C69.2892 123.822 70.2526 123.521 71.0353 122.919C71.2761 122.738 71.3363 122.799 71.2761 123.039C71.1557 123.762 71.2761 125.207 73.3835 126.11C74.949 126.772 75.9124 126.11 76.5145 125.508C76.7553 125.267 76.8758 125.327 76.8758 125.688C76.936 127.735 78.6219 129.301 80.669 129.301C82.7764 129.301 84.4623 127.615 84.4623 125.508C84.5225 123.401 82.8366 121.715 80.7292 121.715" fill="white"></path>
  <path d="M80.7294 129.031C78.8027 129.031 77.2974 127.526 77.2372 125.66C77.2372 125.479 77.2372 125.058 76.8759 125.058C76.7555 125.058 76.5748 125.118 76.4544 125.299C75.9727 125.72 75.4308 126.081 74.6481 126.081C74.2868 126.081 73.9256 126.021 73.5041 125.84C71.5171 124.998 71.4569 123.613 71.5773 123.071C71.5773 122.951 71.5773 122.77 71.5171 122.65L71.3967 122.529H71.2763C71.1559 122.529 71.0354 122.589 70.915 122.65C70.3129 123.071 69.771 123.252 69.2291 123.252C68.9281 123.252 68.627 123.191 68.2657 123.071C65.6165 122.048 65.8573 119.519 65.9777 118.797C65.9777 118.616 65.9777 118.556 65.8573 118.435L65.6165 118.315L65.4358 118.495C64.8939 118.977 64.2316 119.278 63.5091 119.278C62.0038 119.278 60.7394 118.074 60.7394 116.509C60.7394 114.943 62.0038 113.739 63.5091 113.739C64.8939 113.739 66.0379 114.763 66.2186 116.148L66.339 116.87L66.7605 116.268C66.8207 116.208 67.9045 114.522 69.9517 114.522C70.3129 114.522 70.7344 114.582 71.1559 114.703C72.7816 115.184 73.0826 116.689 73.0826 117.291C73.1428 117.653 73.3837 117.653 73.4439 117.653C73.5643 117.653 73.6847 117.592 73.7449 117.472C74.046 117.171 74.7083 116.629 75.7921 116.629C76.2738 116.629 76.7555 116.75 77.2974 116.99C79.8865 118.074 78.6822 121.385 78.6822 121.446C78.4414 121.987 78.4414 122.228 78.6822 122.349L78.8027 122.409H78.8629C78.9833 122.409 79.1037 122.349 79.3446 122.288C79.7058 122.168 80.2477 121.987 80.7294 121.987C82.6561 121.987 84.2818 123.613 84.2818 125.539C84.2216 127.466 82.6561 129.031 80.7294 129.031M108.125 113.197C103.85 109.465 93.9758 100.855 91.3265 98.8687C89.8212 97.7248 88.7375 97.1228 87.8343 96.8217C87.4128 96.7013 86.8107 96.5809 86.0882 96.5809C85.4259 96.5809 84.7033 96.7013 83.9206 96.9421C82.1745 97.484 80.4886 98.8687 78.8027 100.193L78.7424 100.253C77.177 101.458 75.6115 102.782 74.347 103.023C73.8051 103.143 73.2632 103.203 72.7214 103.203C71.3365 103.203 70.1323 102.782 69.7108 102.24C69.6506 102.12 69.7108 101.999 69.8312 101.759V101.698L73.5643 97.6646C76.5146 94.7146 79.2843 91.9451 85.6667 91.7645H85.9678C89.9417 91.7645 93.9156 93.5707 94.3973 93.7513C98.1304 95.5574 101.984 96.5207 105.898 96.5207C109.932 96.5207 114.086 95.4972 118.482 93.5105C118 93.089 117.458 92.7278 116.976 92.3064C113.183 93.9921 109.51 94.835 105.958 94.835C102.345 94.835 98.7325 93.9319 95.2402 92.2462C95.0596 92.186 90.6642 90.0788 86.0882 90.0788H85.7269C80.3681 90.1992 77.2974 92.1257 75.3104 93.8115C73.3235 93.8717 71.6376 94.3533 70.0721 94.7748C68.6872 95.136 67.5432 95.4972 66.3992 95.4972C65.9175 95.4972 65.0746 95.437 65.0144 95.437C63.6897 95.3768 57.0665 93.7513 51.768 91.7645C51.2261 92.1257 50.6842 92.5472 50.2025 92.9686C55.6817 95.1962 62.4253 96.9421 64.5327 97.1228C65.1348 97.183 65.7369 97.2432 66.3992 97.2432C67.7841 97.2432 69.1689 96.8217 70.5538 96.4605C71.3365 96.2197 72.2397 95.9789 73.1428 95.7982L72.4203 96.5207L68.627 100.675C68.326 100.976 67.6636 101.819 68.0851 102.782C68.2657 103.203 68.627 103.565 69.1087 103.926C70.0119 104.528 71.6376 104.949 73.1428 104.949C73.7449 104.949 74.2868 104.889 74.7685 104.769C76.3942 104.408 78.0199 103.083 79.8262 101.638C81.2713 100.494 83.2583 99.1095 84.8237 98.6881C85.2452 98.5677 85.7871 98.5075 86.2086 98.5075H86.5699C87.5934 98.6279 88.5568 98.9891 90.3631 100.314C93.4941 102.662 107.403 114.823 107.523 114.943C107.523 114.943 108.426 115.726 108.366 116.99C108.306 117.713 107.945 118.315 107.282 118.736C106.68 119.098 106.078 119.278 105.476 119.278C104.573 119.278 103.911 118.857 103.85 118.797C103.79 118.736 99.0335 114.402 97.2874 112.957C96.9863 112.716 96.7455 112.535 96.4444 112.535C96.324 112.535 96.1434 112.595 96.0832 112.716C95.7821 113.077 96.1434 113.498 96.5047 113.86L102.044 119.459C102.044 119.459 102.706 120.121 102.827 120.964C102.887 121.867 102.405 122.65 101.502 123.252C100.84 123.673 100.178 123.914 99.5152 123.914C98.6723 123.914 98.0701 123.553 97.9497 123.432L97.167 122.65C95.7219 121.205 94.2166 119.76 93.1328 118.797C92.7114 118.495 92.4103 118.255 92.1093 118.255C91.9888 118.255 91.8684 118.315 91.748 118.375C91.6276 118.495 91.5072 118.736 91.8684 119.158C91.9888 119.338 92.1695 119.459 92.1695 119.459L96.2036 124.034C96.2638 124.095 97.0466 125.058 96.2638 125.961L96.1434 126.142L95.7821 126.503C95.1198 127.045 94.1564 127.105 93.7952 127.105C93.6145 127.105 93.4339 127.105 93.2533 127.045C92.8318 126.984 92.5909 126.864 92.4705 126.683L92.4103 126.623C92.1695 126.382 90.1223 124.335 88.4364 122.89C88.1956 122.71 87.9547 122.469 87.6537 122.469C87.5332 122.469 87.4128 122.529 87.2924 122.65C86.9311 123.011 87.473 123.553 87.6537 123.794L91.0857 127.586C91.0857 127.647 91.0255 127.707 90.9653 127.827C90.8448 128.008 90.4234 128.429 89.1589 128.55H88.6772C87.3526 128.55 86.028 127.948 85.3054 127.526C85.6065 126.864 85.7871 126.081 85.7871 125.359C85.7871 122.529 83.4991 120.181 80.609 120.181H80.4283C80.5488 118.857 80.3681 116.449 77.8393 115.365C77.1167 115.064 76.3942 114.883 75.6717 114.883C75.1298 114.883 74.5879 115.004 74.1062 115.184C73.5643 114.161 72.7214 113.438 71.5773 113.017C71.0354 112.957 70.4333 112.836 69.771 112.836C68.7474 112.836 67.7238 113.137 66.8809 113.739C66.0379 112.716 64.7735 112.114 63.5091 112.114C62.3651 112.114 61.2813 112.595 60.4383 113.378C59.3545 112.535 55.0796 109.826 43.6997 107.237C43.1578 107.117 41.8934 106.756 41.1106 106.515C40.9902 107.117 40.8698 107.779 40.8096 108.381C40.8096 108.381 42.917 108.863 43.3384 108.983C55.0193 111.572 58.8728 114.281 59.5352 114.763C59.2943 115.305 59.1739 115.846 59.1739 116.449C59.1739 118.857 61.1609 120.843 63.5693 120.843C63.8101 120.843 64.1112 120.843 64.352 120.783C64.7133 122.529 65.8573 123.914 67.6636 124.576C68.2055 124.757 68.6872 124.877 69.2291 124.877C69.5904 124.877 69.8914 124.817 70.2527 124.757C70.5538 125.6 71.3365 126.623 72.9622 127.285C73.5643 127.526 74.1062 127.647 74.7083 127.647C75.19 127.647 75.6115 127.586 76.033 127.406C76.8157 129.332 78.6822 130.597 80.7896 130.597C82.1745 130.597 83.4991 130.055 84.4625 129.031C85.3054 129.513 87.0515 130.356 88.7977 130.356C89.0385 130.356 89.2191 130.356 89.46 130.296C91.2061 130.055 92.0491 129.393 92.4103 128.851C92.4705 128.73 92.5307 128.67 92.591 128.55C93.0124 128.67 93.4339 128.791 93.9758 128.791C94.9392 128.791 95.8423 128.49 96.8057 127.767C97.7089 127.105 98.3712 126.142 98.4916 125.359V125.299C98.7927 125.359 99.0937 125.419 99.455 125.419C100.479 125.419 101.442 125.118 102.345 124.516C104.151 123.312 104.452 121.807 104.452 120.783C104.754 120.843 105.115 120.904 105.416 120.904C106.319 120.904 107.282 120.603 108.125 120.061C109.269 119.338 109.932 118.255 109.992 116.99C110.052 116.148 109.871 115.244 109.39 114.522C112.4 113.197 119.264 110.729 127.393 108.863C127.333 108.261 127.272 107.598 127.152 106.996C117.277 109.224 109.932 112.355 108.125 113.197Z" fill="#28316B"></path>
  <path d="M278.554 103.217C277.771 104.241 276.627 104.783 275.182 104.783C273.737 104.783 272.593 104.241 271.81 103.217C271.028 102.194 270.606 100.689 270.606 98.7622C270.606 96.8357 271.028 95.3306 271.81 94.3071C272.593 93.2836 273.737 92.7417 275.182 92.7417C276.687 92.7417 277.771 93.2836 278.554 94.3071C279.337 95.3306 279.758 96.8357 279.758 98.7622C279.758 100.689 279.337 102.194 278.554 103.217ZM282.588 91.5376C280.962 89.4907 278.494 88.4672 275.182 88.4672C271.871 88.4672 269.402 89.4907 267.776 91.5376C266.151 93.5846 265.308 95.9928 265.308 98.7622C265.308 101.592 266.09 104 267.776 105.987C269.402 107.974 271.871 108.997 275.182 108.997C278.494 108.997 280.962 107.974 282.588 105.987C284.214 104 284.997 101.592 284.997 98.7622C285.057 95.9928 284.214 93.5846 282.588 91.5376Z" fill="#28316B"></path>
  <path d="M238.476 100.872C238.416 102.557 237.934 103.701 237.031 104.363C236.128 105.026 235.104 105.327 233.96 105.327C233.237 105.327 232.696 105.146 232.214 104.725C231.732 104.363 231.491 103.701 231.491 102.858C231.491 101.895 231.913 101.173 232.696 100.691C233.177 100.45 233.96 100.209 235.044 100.029L236.188 99.7879C236.73 99.6675 237.211 99.5471 237.512 99.4267C237.874 99.3063 238.175 99.1257 238.476 98.945V100.872V100.872ZM241.065 89.8541C239.439 89.0112 237.512 88.5898 235.405 88.5898C232.154 88.5898 229.805 89.4327 228.481 91.1184C227.638 92.2021 227.156 93.5868 227.036 95.2725H231.913C232.033 94.5501 232.274 93.948 232.635 93.5266C233.117 92.9246 234.02 92.6235 235.224 92.6235C236.308 92.6235 237.151 92.7439 237.693 93.1052C238.235 93.4062 238.536 93.948 238.536 94.7307C238.536 95.393 238.175 95.8746 237.452 96.1756C237.031 96.3562 236.368 96.4766 235.405 96.5971L233.659 96.7777C231.672 97.0185 230.227 97.4399 229.203 98.042C227.337 99.1257 226.434 100.811 226.434 103.22C226.434 105.026 226.975 106.471 228.18 107.494C229.324 108.518 230.769 108.939 232.515 108.999C243.533 109.481 243.413 103.159 243.533 101.895V94.6103C243.533 92.2623 242.691 90.697 241.065 89.8541" fill="#28316B"></path>
  <path d="M215.88 92.9051C217.145 92.9051 218.048 93.2664 218.65 94.049C219.071 94.6511 219.312 95.2531 219.433 95.9756H224.852C224.551 93.2062 223.587 91.3398 221.961 90.2561C220.336 89.1724 218.228 88.6306 215.7 88.6306C212.689 88.6306 210.341 89.5337 208.655 91.4C206.969 93.2664 206.126 95.795 206.126 99.1062C206.126 102.056 206.909 104.404 208.414 106.271C209.979 108.137 212.388 109.04 215.639 109.04C218.891 109.04 221.359 107.956 223.045 105.729C224.069 104.344 224.671 102.899 224.791 101.394H219.372C219.252 102.418 218.951 103.26 218.409 103.862C217.867 104.464 217.024 104.826 215.76 104.826C214.014 104.826 212.809 104.043 212.147 102.418C211.786 101.575 211.605 100.431 211.605 99.046C211.605 97.5409 211.786 96.397 212.147 95.4939C212.87 93.748 214.074 92.9051 215.88 92.9051" fill="#28316B"></path>
  <path d="M204.687 88.6601C193.488 88.6601 194.15 98.5337 194.15 98.5337V108.588H199.208V99.1357C199.208 97.5704 199.388 96.4265 199.81 95.704C200.532 94.3795 201.857 93.7173 203.904 93.7173H204.506C204.747 93.7173 205.048 93.7775 205.349 93.7775V88.5999C205.108 88.5999 204.988 88.5999 204.928 88.5397C204.868 88.6601 204.747 88.6601 204.687 88.6601" fill="#28316B"></path>
  <path d="M179.238 93.8625C179.961 93.1401 180.924 92.7789 182.249 92.7789C183.453 92.7789 184.416 93.1401 185.259 93.8023C186.042 94.5248 186.524 95.4881 186.584 96.8728H177.913C178.034 95.6085 178.516 94.6452 179.238 93.8625M186.042 103.315C185.801 103.616 185.62 103.857 185.38 104.097C184.657 104.699 183.694 104.88 182.55 104.88C181.466 104.88 180.623 104.699 179.84 104.218C178.576 103.435 177.853 102.111 177.793 100.184H191.822C191.822 98.4983 191.762 97.234 191.642 96.3309C191.401 94.8258 190.919 93.5013 190.136 92.3574C189.233 91.0329 188.149 90.1298 186.825 89.5278C185.5 88.9257 183.995 88.6247 182.309 88.6247C179.479 88.6247 177.191 89.5278 175.385 91.2737C173.639 93.0799 172.735 95.6085 172.735 98.98C172.735 102.532 173.699 105.121 175.686 106.686C177.673 108.252 179.9 109.034 182.49 109.034C185.62 109.034 188.029 108.071 189.715 106.205C190.678 105.241 191.22 104.218 191.461 103.255H186.042V103.315Z" fill="#28316B"></path>
  <path d="M170.678 108.559H166.042V96.8788C166.042 95.7952 165.681 93.2665 162.61 93.2665C160.563 93.2665 159.118 94.7115 159.118 96.8788V108.559H154.481V96.8788C154.481 95.7952 154.18 93.2665 151.11 93.2665C149.062 93.2665 147.617 94.7115 147.617 96.8788V108.559H142.921V96.9993C142.921 92.1829 146.112 88.5706 151.049 88.5706C153.518 88.5706 155.505 89.594 156.83 91.2798C158.214 89.6543 160.262 88.5706 162.61 88.5706C167.668 88.5706 170.678 92.0624 170.678 96.9993V108.559Z" fill="#28316B"></path>
  <path d="M257.777 103.285C257.055 104.368 255.971 104.85 254.526 104.85C253.081 104.85 252.057 104.308 251.335 103.225C250.612 102.141 250.311 100.576 250.311 98.8296C250.311 97.204 250.673 95.8193 251.335 94.6754C251.997 93.5917 253.081 92.9897 254.586 92.9897C255.55 92.9897 256.393 93.2907 257.115 93.8928C258.319 94.9163 258.921 96.7224 258.921 99.0704C258.861 100.816 258.5 102.201 257.777 103.285M263.859 82.514C263.859 82.514 258.741 81.9722 258.741 86.0661V91.4846C258.199 90.5815 257.416 89.859 256.513 89.3774C255.61 88.8356 254.586 88.5947 253.382 88.5947C250.853 88.5947 248.806 89.558 247.301 91.4244C245.795 93.2907 245.013 96.0601 245.013 99.3112C245.013 102.141 245.795 104.489 247.301 106.295C248.866 108.101 251.877 108.884 254.526 108.884C263.859 108.884 263.738 100.877 263.738 100.877L263.859 82.514V82.514Z" fill="#28316B"></path>
  <path d="M156.498 127.054C156.498 125.127 156.137 123.682 155.354 122.659C154.632 121.635 153.548 121.094 152.163 121.094C150.838 121.094 149.755 121.635 149.032 122.659C148.31 123.622 148.009 125.067 148.009 127.054C148.009 128.92 148.37 130.305 149.153 131.268C149.875 132.292 150.959 132.834 152.344 132.834C153.608 132.834 154.632 132.292 155.414 131.268C156.137 130.185 156.498 128.8 156.498 127.054M148.009 140.781C148.009 141.503 147.707 142.105 147.166 142.587C146.684 143.008 146.022 143.249 145.359 143.249H142.891V125.609C142.891 122.177 144.035 120.01 145.961 118.565C147.346 117.542 149.454 116.518 153.608 116.699C155.776 116.819 157.823 117.722 159.208 119.408C160.894 121.455 161.616 123.743 161.616 126.753C161.616 129.823 160.894 132.352 159.388 134.278C157.883 136.145 155.956 137.048 153.668 137.048C152.404 137.048 151.32 136.807 150.417 136.386C149.393 135.904 148.611 135.121 148.009 134.098V140.781Z" fill="#50B4E9"></path>
  <path d="M186.916 127.054C186.916 130.426 187.879 132.292 189.866 132.653C191.793 133.014 193.238 132.593 194.202 131.268C194.623 130.727 194.984 129.884 195.165 128.74C195.346 127.596 195.346 126.452 195.225 125.308C195.045 124.164 194.623 123.201 194.021 122.298C193.359 121.395 192.456 120.973 191.251 120.973C189.565 120.973 188.482 121.575 187.879 122.84C187.217 124.104 186.916 125.489 186.916 127.054M195.225 135.483V134.218C194.322 135.603 193.178 136.446 191.673 136.807C190.168 137.168 188.722 137.048 187.217 136.446C185.772 135.844 184.508 134.76 183.424 133.195C182.4 131.569 181.858 129.522 181.858 126.934C181.858 123.923 182.581 121.455 183.966 119.528C185.351 117.662 187.578 116.759 190.649 116.699C193.66 116.639 195.466 117.301 197.152 118.625C199.019 120.07 200.163 122.238 200.163 125.669V136.025C200.163 139.336 197.875 145.417 190.649 144.935C186.194 144.634 183.665 142.768 182.28 138.613H187.639C188.06 139.276 188.602 139.818 189.445 140.179C190.228 140.54 191.071 140.66 191.853 140.48C192.636 140.299 193.419 139.818 194.081 139.035C194.804 138.252 195.165 137.048 195.225 135.483" fill="#50B4E9"></path>
  <path d="M175.003 129.102C174.943 130.787 174.461 131.931 173.558 132.594C172.655 133.256 171.631 133.557 170.487 133.557C169.765 133.557 169.223 133.376 168.681 132.955C168.199 132.594 167.958 131.931 167.958 131.088C167.958 130.125 168.38 129.403 169.163 128.921C169.644 128.68 170.427 128.439 171.511 128.259L172.655 128.018C173.257 127.898 173.678 127.777 173.98 127.657C174.341 127.536 174.642 127.356 174.943 127.175V129.102H175.003ZM177.592 118.084C175.966 117.241 174.04 116.82 171.932 116.82C168.681 116.82 166.393 117.663 165.008 119.349C164.165 120.432 163.683 121.817 163.563 123.503H168.44C168.561 122.78 168.801 122.178 169.163 121.757C169.644 121.155 170.548 120.854 171.752 120.854C172.836 120.854 173.678 120.974 174.22 121.335C174.762 121.636 175.063 122.178 175.063 122.961C175.063 123.623 174.702 124.105 173.98 124.406C173.558 124.586 172.896 124.707 171.932 124.827L170.186 125.008C168.199 125.249 166.754 125.67 165.731 126.272C163.864 127.356 162.961 129.042 162.961 131.45C162.961 133.256 163.563 134.701 164.707 135.664C165.851 136.688 167.296 137.109 169.042 137.169C180.061 137.651 179.94 131.329 180.061 130.065V122.78C180.061 120.492 179.218 118.927 177.592 118.084" fill="#50B4E9"></path>
  <path d="M215.369 131.368C214.587 132.391 213.443 132.933 211.998 132.933C210.553 132.933 209.409 132.391 208.626 131.368C207.843 130.344 207.422 128.839 207.422 126.913C207.422 124.986 207.843 123.481 208.626 122.457C209.409 121.434 210.553 120.892 211.998 120.892C213.503 120.892 214.587 121.434 215.369 122.457C216.152 123.481 216.574 124.986 216.574 126.913C216.574 128.839 216.152 130.344 215.369 131.368ZM219.404 119.688C217.778 117.641 215.309 116.618 211.998 116.618C208.686 116.618 206.217 117.641 204.592 119.688C202.966 121.735 202.123 124.143 202.123 126.913C202.123 129.742 202.906 132.15 204.592 134.137C206.217 136.124 208.686 137.147 211.998 137.147C215.309 137.147 217.778 136.124 219.404 134.137C221.029 132.15 221.812 129.742 221.812 126.913C221.872 124.143 221.029 121.735 219.404 119.688" fill="#50B4E9"></path>
</svg>
